<svg xmlns="http://www.w3.org/2000/svg" width="224" height="26" viewBox="0 0 224 26" fill="none">
<g opacity="0.2">
<path d="M2.13877 7.87535C1.83331 9.012 1.83331 10.5801 1.83331 13C1.83331 16.4373 1.83331 18.1559 2.70865 19.3607C2.99135 19.7498 3.33353 20.092 3.72263 20.3747C4.92743 21.25 6.64606 21.25 10.0833 21.25H11.9166C15.3539 21.25 17.0725 21.25 18.2773 20.3747C18.6664 20.092 19.0086 19.7498 19.2913 19.3607C20.1666 18.1559 20.1666 16.4373 20.1666 13C20.1666 10.572 20.1666 9.00156 19.8581 7.864L17.9306 9.79154C16.4344 11.2878 15.2618 12.4604 14.2239 13.2523C13.1615 14.0628 12.1599 14.539 10.9999 14.539C9.83986 14.539 8.83818 14.0628 7.77583 13.2523C6.73792 12.4604 5.56535 11.2878 4.0691 9.79152L2.27685 7.99927L2.13877 7.87535Z" fill="white"/>
<path d="M2.74998 6.58333L2.84975 6.6659L3.22286 7.00074L5.00418 8.78206C6.5457 10.3236 7.65397 11.4298 8.60988 12.1591C9.54992 12.8763 10.2614 13.164 10.9999 13.164C11.7383 13.164 12.4498 12.8763 13.3898 12.1591C14.3457 11.4298 15.454 10.3236 16.9955 8.78206L19.1111 6.66648L19.2262 6.55197C18.9436 6.16287 18.6664 5.90804 18.2773 5.62534C17.0725 4.75 15.3539 4.75 11.9166 4.75H10.0833C6.64606 4.75 4.92743 4.75 3.72263 5.62534C3.33353 5.90804 3.03268 6.19423 2.74998 6.58333Z" fill="white"/>
<path d="M35.5362 19V7.36364H42.8317V8.875H37.2919V12.4205H42.451V13.9261H37.2919V17.4886H42.8999V19H35.5362ZM46.7393 13.8182V19H45.0405V10.2727H46.6712V11.6932H46.7791C46.9799 11.2311 47.2943 10.8598 47.7223 10.5795C48.1541 10.2992 48.6977 10.1591 49.353 10.1591C49.9477 10.1591 50.4685 10.2841 50.9155 10.5341C51.3625 10.7803 51.709 11.1477 51.9553 11.6364C52.2015 12.125 52.3246 12.7292 52.3246 13.4489V19H50.6257V13.6534C50.6257 13.0208 50.4609 12.5265 50.1314 12.1705C49.8018 11.8106 49.3492 11.6307 48.7734 11.6307C48.3795 11.6307 48.0291 11.7159 47.7223 11.8864C47.4193 12.0568 47.1787 12.3068 47.0007 12.6364C46.8265 12.9621 46.7393 13.3561 46.7393 13.8182ZM58.6768 10.2727V11.6364H53.9098V10.2727H58.6768ZM55.1882 8.18182H56.8871V16.4375C56.8871 16.767 56.9363 17.0152 57.0348 17.1818C57.1333 17.3447 57.2602 17.4564 57.4155 17.517C57.5746 17.5739 57.7469 17.6023 57.9325 17.6023C58.0689 17.6023 58.1882 17.5928 58.2905 17.5739C58.3928 17.5549 58.4723 17.5398 58.5291 17.5284L58.8359 18.9318C58.7375 18.9697 58.5973 19.0076 58.4155 19.0455C58.2337 19.0871 58.0064 19.1098 57.7337 19.1136C57.2867 19.1212 56.87 19.0417 56.4837 18.875C56.0973 18.7083 55.7848 18.4508 55.5462 18.1023C55.3075 17.7538 55.1882 17.3163 55.1882 16.7898V8.18182ZM64.2237 19.1761C63.3639 19.1761 62.6233 18.9924 62.0021 18.625C61.3847 18.2538 60.9074 17.733 60.5703 17.0625C60.237 16.3883 60.0703 15.5985 60.0703 14.6932C60.0703 13.7992 60.237 13.0114 60.5703 12.3295C60.9074 11.6477 61.3771 11.1155 61.9794 10.733C62.5855 10.3504 63.2938 10.1591 64.1044 10.1591C64.5968 10.1591 65.0741 10.2405 65.5362 10.4034C65.9983 10.5663 66.4131 10.822 66.7805 11.1705C67.148 11.5189 67.4377 11.9716 67.6499 12.5284C67.862 13.0814 67.968 13.7538 67.968 14.5455V15.1477H61.0305V13.875H66.3033C66.3033 13.428 66.2124 13.0322 66.0305 12.6875C65.8487 12.339 65.593 12.0644 65.2635 11.8636C64.9377 11.6629 64.5552 11.5625 64.1158 11.5625C63.6385 11.5625 63.2218 11.6799 62.8658 11.9148C62.5135 12.1458 62.2408 12.4489 62.0476 12.8239C61.8582 13.1951 61.7635 13.5985 61.7635 14.0341V15.0284C61.7635 15.6117 61.8658 16.108 62.0703 16.517C62.2786 16.9261 62.5684 17.2386 62.9396 17.4545C63.3108 17.6667 63.7446 17.7727 64.2408 17.7727C64.5627 17.7727 64.8563 17.7273 65.1214 17.6364C65.3866 17.5417 65.6158 17.4015 65.8089 17.2159C66.0021 17.0303 66.1499 16.8011 66.2521 16.5284L67.8601 16.8182C67.7313 17.2917 67.5002 17.7064 67.1669 18.0625C66.8374 18.4148 66.4226 18.6894 65.9226 18.8864C65.4264 19.0795 64.8601 19.1761 64.2237 19.1761ZM69.853 19V10.2727H71.495V11.6591H71.5859C71.745 11.1894 72.0253 10.8201 72.4268 10.5511C72.8321 10.2784 73.2905 10.142 73.8018 10.142C73.9079 10.142 74.0329 10.1458 74.1768 10.1534C74.3246 10.161 74.4401 10.1705 74.5234 10.1818V11.8068C74.4553 11.7879 74.334 11.767 74.1598 11.7443C73.9856 11.7178 73.8113 11.7045 73.6371 11.7045C73.2356 11.7045 72.8776 11.7898 72.5632 11.9602C72.2526 12.1269 72.0064 12.3598 71.8246 12.6591C71.6428 12.9545 71.5518 13.2917 71.5518 13.6705V19H69.853ZM81.3018 22.2727C81.0481 22.2727 80.817 22.2519 80.6087 22.2102C80.4003 22.1723 80.245 22.1307 80.1428 22.0852L80.5518 20.6932C80.8625 20.7765 81.139 20.8125 81.3814 20.8011C81.6238 20.7898 81.8378 20.6989 82.0234 20.5284C82.2128 20.358 82.3795 20.0795 82.5234 19.6932L82.7337 19.1136L79.5405 10.2727H81.3587L83.5689 17.0455H83.6598L85.87 10.2727H87.6939L84.0973 20.1648C83.9306 20.6193 83.7185 21.0038 83.4609 21.3182C83.2034 21.6364 82.8965 21.875 82.5405 22.0341C82.1844 22.1932 81.7715 22.2727 81.3018 22.2727ZM92.6697 19.1761C91.8516 19.1761 91.1375 18.9886 90.5277 18.6136C89.9179 18.2386 89.4444 17.714 89.1072 17.0398C88.7701 16.3655 88.6016 15.5777 88.6016 14.6761C88.6016 13.7708 88.7701 12.9792 89.1072 12.3011C89.4444 11.6231 89.9179 11.0966 90.5277 10.7216C91.1375 10.3466 91.8516 10.1591 92.6697 10.1591C93.4879 10.1591 94.2019 10.3466 94.8118 10.7216C95.4216 11.0966 95.8951 11.6231 96.2322 12.3011C96.5694 12.9792 96.7379 13.7708 96.7379 14.6761C96.7379 15.5777 96.5694 16.3655 96.2322 17.0398C95.8951 17.714 95.4216 18.2386 94.8118 18.6136C94.2019 18.9886 93.4879 19.1761 92.6697 19.1761ZM92.6754 17.75C93.2057 17.75 93.6451 17.6098 93.9936 17.3295C94.3421 17.0492 94.5997 16.6761 94.7663 16.2102C94.9368 15.7443 95.022 15.2311 95.022 14.6705C95.022 14.1136 94.9368 13.6023 94.7663 13.1364C94.5997 12.6667 94.3421 12.2898 93.9936 12.0057C93.6451 11.7216 93.2057 11.5795 92.6754 11.5795C92.1413 11.5795 91.6982 11.7216 91.3459 12.0057C90.9974 12.2898 90.7379 12.6667 90.5675 13.1364C90.4008 13.6023 90.3175 14.1136 90.3175 14.6705C90.3175 15.2311 90.4008 15.7443 90.5675 16.2102C90.7379 16.6761 90.9974 17.0492 91.3459 17.3295C91.6982 17.6098 92.1413 17.75 92.6754 17.75ZM104.163 15.3807V10.2727H105.867V19H104.197V17.4886H104.106C103.905 17.9545 103.583 18.3428 103.14 18.6534C102.701 18.9602 102.153 19.1136 101.498 19.1136C100.937 19.1136 100.441 18.9905 100.009 18.7443C99.5812 18.4943 99.2441 18.125 98.9979 17.6364C98.7554 17.1477 98.6342 16.5436 98.6342 15.8239V10.2727H100.333V15.6193C100.333 16.214 100.498 16.6875 100.827 17.0398C101.157 17.392 101.585 17.5682 102.112 17.5682C102.43 17.5682 102.746 17.4886 103.06 17.3295C103.379 17.1705 103.642 16.9299 103.85 16.608C104.062 16.286 104.166 15.8769 104.163 15.3807ZM108.15 19V10.2727H109.792V11.6591H109.883C110.042 11.1894 110.322 10.8201 110.724 10.5511C111.129 10.2784 111.587 10.142 112.099 10.142C112.205 10.142 112.33 10.1458 112.474 10.1534C112.621 10.161 112.737 10.1705 112.82 10.1818V11.8068C112.752 11.7879 112.631 11.767 112.457 11.7443C112.282 11.7178 112.108 11.7045 111.934 11.7045C111.532 11.7045 111.174 11.7898 110.86 11.9602C110.549 12.1269 110.303 12.3598 110.121 12.6591C109.94 12.9545 109.849 13.2917 109.849 13.6705V19H108.15ZM122.286 19.1761C121.426 19.1761 120.686 18.9924 120.065 18.625C119.447 18.2538 118.97 17.733 118.633 17.0625C118.299 16.3883 118.133 15.5985 118.133 14.6932C118.133 13.7992 118.299 13.0114 118.633 12.3295C118.97 11.6477 119.44 11.1155 120.042 10.733C120.648 10.3504 121.356 10.1591 122.167 10.1591C122.659 10.1591 123.137 10.2405 123.599 10.4034C124.061 10.5663 124.476 10.822 124.843 11.1705C125.21 11.5189 125.5 11.9716 125.712 12.5284C125.924 13.0814 126.031 13.7538 126.031 14.5455V15.1477H119.093V13.875H124.366C124.366 13.428 124.275 13.0322 124.093 12.6875C123.911 12.339 123.656 12.0644 123.326 11.8636C123 11.6629 122.618 11.5625 122.178 11.5625C121.701 11.5625 121.284 11.6799 120.928 11.9148C120.576 12.1458 120.303 12.4489 120.11 12.8239C119.921 13.1951 119.826 13.5985 119.826 14.0341V15.0284C119.826 15.6117 119.928 16.108 120.133 16.517C120.341 16.9261 120.631 17.2386 121.002 17.4545C121.373 17.6667 121.807 17.7727 122.303 17.7727C122.625 17.7727 122.919 17.7273 123.184 17.6364C123.449 17.5417 123.678 17.4015 123.871 17.2159C124.065 17.0303 124.212 16.8011 124.315 16.5284L125.923 16.8182C125.794 17.2917 125.563 17.7064 125.229 18.0625C124.9 18.4148 124.485 18.6894 123.985 18.8864C123.489 19.0795 122.923 19.1761 122.286 19.1761ZM130.455 19.1932C129.902 19.1932 129.402 19.0909 128.955 18.8864C128.508 18.678 128.154 18.3769 127.893 17.983C127.635 17.589 127.506 17.1061 127.506 16.5341C127.506 16.0417 127.601 15.6364 127.79 15.3182C127.98 15 128.236 14.7481 128.558 14.5625C128.879 14.3769 129.239 14.2367 129.637 14.142C130.035 14.0473 130.44 13.9754 130.853 13.9261C131.376 13.8655 131.8 13.8163 132.126 13.7784C132.451 13.7367 132.688 13.6705 132.836 13.5795C132.984 13.4886 133.058 13.3409 133.058 13.1364V13.0966C133.058 12.6004 132.917 12.2159 132.637 11.9432C132.361 11.6705 131.948 11.5341 131.398 11.5341C130.826 11.5341 130.376 11.661 130.046 11.9148C129.72 12.1648 129.495 12.4432 129.37 12.75L127.773 12.3864C127.963 11.8561 128.239 11.428 128.603 11.1023C128.97 10.7727 129.393 10.5341 129.87 10.3864C130.347 10.2348 130.849 10.1591 131.376 10.1591C131.724 10.1591 132.094 10.2008 132.484 10.2841C132.878 10.3636 133.245 10.5114 133.586 10.7273C133.931 10.9432 134.213 11.2519 134.433 11.6534C134.652 12.0511 134.762 12.5682 134.762 13.2045V19H133.103V17.8068H133.035C132.925 18.0265 132.76 18.2424 132.54 18.4545C132.321 18.6667 132.039 18.8428 131.694 18.983C131.349 19.1231 130.936 19.1932 130.455 19.1932ZM130.825 17.8295C131.294 17.8295 131.696 17.7367 132.029 17.5511C132.366 17.3655 132.622 17.1231 132.796 16.8239C132.974 16.5208 133.063 16.197 133.063 15.8523V14.7273C133.003 14.7879 132.885 14.8447 132.711 14.8977C132.54 14.947 132.345 14.9905 132.126 15.0284C131.906 15.0625 131.692 15.0947 131.484 15.125C131.275 15.1515 131.101 15.1742 130.961 15.1932C130.631 15.2348 130.33 15.3049 130.058 15.4034C129.789 15.5019 129.573 15.6439 129.41 15.8295C129.251 16.0114 129.171 16.2538 129.171 16.5568C129.171 16.9773 129.326 17.2955 129.637 17.5114C129.948 17.7235 130.344 17.8295 130.825 17.8295ZM137.025 19V10.2727H138.656V11.6932H138.763C138.945 11.2121 139.243 10.8371 139.656 10.5682C140.068 10.2955 140.563 10.1591 141.138 10.1591C141.722 10.1591 142.21 10.2955 142.604 10.5682C143.002 10.8409 143.296 11.2159 143.485 11.6932H143.576C143.784 11.2273 144.116 10.8561 144.57 10.5795C145.025 10.2992 145.567 10.1591 146.195 10.1591C146.987 10.1591 147.633 10.4072 148.133 10.9034C148.637 11.3996 148.888 12.1477 148.888 13.1477V19H147.19V13.3068C147.19 12.7159 147.029 12.2879 146.707 12.0227C146.385 11.7576 146 11.625 145.553 11.625C145 11.625 144.57 11.7955 144.263 12.1364C143.957 12.4735 143.803 12.9072 143.803 13.4375V19H142.11V13.1989C142.11 12.7254 141.962 12.3447 141.667 12.0568C141.371 11.7689 140.987 11.625 140.513 11.625C140.192 11.625 139.894 11.7102 139.621 11.8807C139.353 12.0473 139.135 12.2803 138.968 12.5795C138.805 12.8788 138.724 13.2254 138.724 13.6193V19H137.025ZM151.165 19V10.2727H152.864V19H151.165ZM152.023 8.92614C151.728 8.92614 151.474 8.82765 151.262 8.63068C151.054 8.42992 150.95 8.19129 150.95 7.91477C150.95 7.63447 151.054 7.39583 151.262 7.19886C151.474 6.99811 151.728 6.89773 152.023 6.89773C152.319 6.89773 152.571 6.99811 152.779 7.19886C152.991 7.39583 153.097 7.63447 153.097 7.91477C153.097 8.19129 152.991 8.42992 152.779 8.63068C152.571 8.82765 152.319 8.92614 152.023 8.92614ZM156.849 7.36364V19H155.15V7.36364H156.849ZM165.908 19.1932C165.355 19.1932 164.855 19.0909 164.408 18.8864C163.961 18.678 163.607 18.3769 163.346 17.983C163.088 17.589 162.96 17.1061 162.96 16.5341C162.96 16.0417 163.054 15.6364 163.244 15.3182C163.433 15 163.689 14.7481 164.011 14.5625C164.333 14.3769 164.692 14.2367 165.09 14.142C165.488 14.0473 165.893 13.9754 166.306 13.9261C166.829 13.8655 167.253 13.8163 167.579 13.7784C167.905 13.7367 168.141 13.6705 168.289 13.5795C168.437 13.4886 168.511 13.3409 168.511 13.1364V13.0966C168.511 12.6004 168.371 12.2159 168.09 11.9432C167.814 11.6705 167.401 11.5341 166.852 11.5341C166.28 11.5341 165.829 11.661 165.499 11.9148C165.174 12.1648 164.948 12.4432 164.823 12.75L163.227 12.3864C163.416 11.8561 163.692 11.428 164.056 11.1023C164.424 10.7727 164.846 10.5341 165.323 10.3864C165.8 10.2348 166.302 10.1591 166.829 10.1591C167.177 10.1591 167.547 10.2008 167.937 10.2841C168.331 10.3636 168.698 10.5114 169.039 10.7273C169.384 10.9432 169.666 11.2519 169.886 11.6534C170.105 12.0511 170.215 12.5682 170.215 13.2045V19H168.556V17.8068H168.488C168.378 18.0265 168.213 18.2424 167.994 18.4545C167.774 18.6667 167.492 18.8428 167.147 18.983C166.802 19.1231 166.389 19.1932 165.908 19.1932ZM166.278 17.8295C166.747 17.8295 167.149 17.7367 167.482 17.5511C167.819 17.3655 168.075 17.1231 168.249 16.8239C168.427 16.5208 168.516 16.197 168.516 15.8523V14.7273C168.456 14.7879 168.338 14.8447 168.164 14.8977C167.994 14.947 167.799 14.9905 167.579 15.0284C167.359 15.0625 167.145 15.0947 166.937 15.125C166.728 15.1515 166.554 15.1742 166.414 15.1932C166.085 15.2348 165.783 15.3049 165.511 15.4034C165.242 15.5019 165.026 15.6439 164.863 15.8295C164.704 16.0114 164.624 16.2538 164.624 16.5568C164.624 16.9773 164.78 17.2955 165.09 17.5114C165.401 17.7235 165.797 17.8295 166.278 17.8295ZM175.745 19.1705C175.04 19.1705 174.412 18.9905 173.859 18.6307C173.309 18.267 172.878 17.75 172.563 17.0795C172.253 16.4053 172.097 15.5966 172.097 14.6534C172.097 13.7102 172.254 12.9034 172.569 12.233C172.887 11.5625 173.323 11.0492 173.876 10.6932C174.429 10.3371 175.056 10.1591 175.756 10.1591C176.298 10.1591 176.734 10.25 177.063 10.4318C177.397 10.6098 177.654 10.8182 177.836 11.0568C178.022 11.2955 178.165 11.5057 178.268 11.6875H178.37V7.36364H180.069V19H178.41V17.642H178.268C178.165 17.8277 178.018 18.0398 177.825 18.2784C177.635 18.517 177.374 18.7254 177.04 18.9034C176.707 19.0814 176.275 19.1705 175.745 19.1705ZM176.12 17.7216C176.609 17.7216 177.022 17.5928 177.359 17.3352C177.7 17.0739 177.957 16.7121 178.131 16.25C178.309 15.7879 178.398 15.25 178.398 14.6364C178.398 14.0303 178.311 13.5 178.137 13.0455C177.963 12.5909 177.707 12.2367 177.37 11.983C177.033 11.7292 176.616 11.6023 176.12 11.6023C175.609 11.6023 175.183 11.7348 174.842 12C174.501 12.2652 174.243 12.6269 174.069 13.0852C173.898 13.5436 173.813 14.0606 173.813 14.6364C173.813 15.2197 173.9 15.7443 174.075 16.2102C174.249 16.6761 174.506 17.0455 174.847 17.3182C175.192 17.5871 175.616 17.7216 176.12 17.7216ZM185.761 19.1705C185.056 19.1705 184.427 18.9905 183.874 18.6307C183.325 18.267 182.893 17.75 182.579 17.0795C182.268 16.4053 182.113 15.5966 182.113 14.6534C182.113 13.7102 182.27 12.9034 182.585 12.233C182.903 11.5625 183.338 11.0492 183.891 10.6932C184.444 10.3371 185.071 10.1591 185.772 10.1591C186.314 10.1591 186.749 10.25 187.079 10.4318C187.412 10.6098 187.67 10.8182 187.852 11.0568C188.037 11.2955 188.181 11.5057 188.283 11.6875H188.386V7.36364H190.085V19H188.425V17.642H188.283C188.181 17.8277 188.033 18.0398 187.84 18.2784C187.651 18.517 187.389 18.7254 187.056 18.9034C186.723 19.0814 186.291 19.1705 185.761 19.1705ZM186.136 17.7216C186.624 17.7216 187.037 17.5928 187.374 17.3352C187.715 17.0739 187.973 16.7121 188.147 16.25C188.325 15.7879 188.414 15.25 188.414 14.6364C188.414 14.0303 188.327 13.5 188.153 13.0455C187.978 12.5909 187.723 12.2367 187.386 11.983C187.049 11.7292 186.632 11.6023 186.136 11.6023C185.624 11.6023 185.198 11.7348 184.857 12C184.516 12.2652 184.259 12.6269 184.085 13.0852C183.914 13.5436 183.829 14.0606 183.829 14.6364C183.829 15.2197 183.916 15.7443 184.09 16.2102C184.264 16.6761 184.522 17.0455 184.863 17.3182C185.208 17.5871 185.632 17.7216 186.136 17.7216ZM192.509 19V10.2727H194.151V11.6591H194.242C194.401 11.1894 194.682 10.8201 195.083 10.5511C195.488 10.2784 195.947 10.142 196.458 10.142C196.564 10.142 196.689 10.1458 196.833 10.1534C196.981 10.161 197.096 10.1705 197.18 10.1818V11.8068C197.112 11.7879 196.99 11.767 196.816 11.7443C196.642 11.7178 196.468 11.7045 196.293 11.7045C195.892 11.7045 195.534 11.7898 195.219 11.9602C194.909 12.1269 194.663 12.3598 194.481 12.6591C194.299 12.9545 194.208 13.2917 194.208 13.6705V19H192.509ZM202.099 19.1761C201.239 19.1761 200.498 18.9924 199.877 18.625C199.26 18.2538 198.782 17.733 198.445 17.0625C198.112 16.3883 197.945 15.5985 197.945 14.6932C197.945 13.7992 198.112 13.0114 198.445 12.3295C198.782 11.6477 199.252 11.1155 199.854 10.733C200.46 10.3504 201.169 10.1591 201.979 10.1591C202.472 10.1591 202.949 10.2405 203.411 10.4034C203.873 10.5663 204.288 10.822 204.656 11.1705C205.023 11.5189 205.313 11.9716 205.525 12.5284C205.737 13.0814 205.843 13.7538 205.843 14.5455V15.1477H198.906V13.875H204.178C204.178 13.428 204.087 13.0322 203.906 12.6875C203.724 12.339 203.468 12.0644 203.138 11.8636C202.813 11.6629 202.43 11.5625 201.991 11.5625C201.513 11.5625 201.097 11.6799 200.741 11.9148C200.388 12.1458 200.116 12.4489 199.923 12.8239C199.733 13.1951 199.638 13.5985 199.638 14.0341V15.0284C199.638 15.6117 199.741 16.108 199.945 16.517C200.154 16.9261 200.443 17.2386 200.815 17.4545C201.186 17.6667 201.62 17.7727 202.116 17.7727C202.438 17.7727 202.731 17.7273 202.996 17.6364C203.262 17.5417 203.491 17.4015 203.684 17.2159C203.877 17.0303 204.025 16.8011 204.127 16.5284L205.735 16.8182C205.606 17.2917 205.375 17.7064 205.042 18.0625C204.712 18.4148 204.298 18.6894 203.798 18.8864C203.301 19.0795 202.735 19.1761 202.099 19.1761ZM214.268 12.4034L212.728 12.6761C212.664 12.4792 212.561 12.2917 212.421 12.1136C212.285 11.9356 212.099 11.7898 211.864 11.6761C211.629 11.5625 211.336 11.5057 210.984 11.5057C210.503 11.5057 210.101 11.6136 209.779 11.8295C209.457 12.0417 209.296 12.3163 209.296 12.6534C209.296 12.9451 209.404 13.1799 209.62 13.358C209.836 13.536 210.184 13.6818 210.665 13.7955L212.052 14.1136C212.855 14.2992 213.453 14.5852 213.847 14.9716C214.241 15.358 214.438 15.8598 214.438 16.4773C214.438 17 214.287 17.4659 213.984 17.875C213.684 18.2803 213.266 18.5985 212.728 18.8295C212.194 19.0606 211.575 19.1761 210.87 19.1761C209.893 19.1761 209.095 18.9678 208.478 18.5511C207.861 18.1307 207.482 17.5341 207.342 16.7614L208.984 16.5114C209.086 16.9394 209.296 17.2633 209.614 17.483C209.933 17.6989 210.347 17.8068 210.859 17.8068C211.415 17.8068 211.861 17.6913 212.194 17.4602C212.527 17.2254 212.694 16.9394 212.694 16.6023C212.694 16.3295 212.592 16.1004 212.387 15.9148C212.186 15.7292 211.878 15.589 211.461 15.4943L209.984 15.1705C209.169 14.9848 208.567 14.6894 208.177 14.2841C207.79 13.8788 207.597 13.3655 207.597 12.7443C207.597 12.2292 207.741 11.7784 208.029 11.392C208.317 11.0057 208.715 10.7045 209.222 10.4886C209.73 10.2689 210.311 10.1591 210.967 10.1591C211.91 10.1591 212.652 10.3636 213.194 10.7727C213.736 11.178 214.094 11.7216 214.268 12.4034ZM222.846 12.4034L221.306 12.6761C221.242 12.4792 221.139 12.2917 220.999 12.1136C220.863 11.9356 220.677 11.7898 220.442 11.6761C220.208 11.5625 219.914 11.5057 219.562 11.5057C219.081 11.5057 218.679 11.6136 218.357 11.8295C218.035 12.0417 217.874 12.3163 217.874 12.6534C217.874 12.9451 217.982 13.1799 218.198 13.358C218.414 13.536 218.763 13.6818 219.244 13.7955L220.63 14.1136C221.433 14.2992 222.031 14.5852 222.425 14.9716C222.819 15.358 223.016 15.8598 223.016 16.4773C223.016 17 222.865 17.4659 222.562 17.875C222.263 18.2803 221.844 18.5985 221.306 18.8295C220.772 19.0606 220.153 19.1761 219.448 19.1761C218.471 19.1761 217.674 18.9678 217.056 18.5511C216.439 18.1307 216.06 17.5341 215.92 16.7614L217.562 16.5114C217.664 16.9394 217.874 17.2633 218.192 17.483C218.511 17.6989 218.925 17.8068 219.437 17.8068C219.994 17.8068 220.439 17.6913 220.772 17.4602C221.105 17.2254 221.272 16.9394 221.272 16.6023C221.272 16.3295 221.17 16.1004 220.965 15.9148C220.764 15.7292 220.456 15.589 220.039 15.4943L218.562 15.1705C217.747 14.9848 217.145 14.6894 216.755 14.2841C216.369 13.8788 216.175 13.3655 216.175 12.7443C216.175 12.2292 216.319 11.7784 216.607 11.392C216.895 11.0057 217.293 10.7045 217.8 10.4886C218.308 10.2689 218.889 10.1591 219.545 10.1591C220.488 10.1591 221.23 10.3636 221.772 10.7727C222.314 11.178 222.672 11.7216 222.846 12.4034Z" fill="white"/>
</g>
</svg>